# xmcd CD database file
#
# Track frame offsets:
#	182
#	28342
#	54560
#	83095
#	112822
#	136830
#	161192
#	178620
#	223340
#	254290
#
# Disc length: 3692 seconds
#
# Revision: 0
# Processed by: cddbd v1.4PL0 Copyright (c) Steve Scherf et al.
# Submitted via: CDex 1.50
#
DISCID=8b0e6a0a
DTITLE=Toots Thielemans - Airegin
DYEAR=1993
DGENRE=Jazz
TTITLE0=Days Of Wine And Roses
TTITLE1=I Never Told You
TTITLE2=Dr. Pretty
TTITLE3=Airegin
TTITLE4=Images
TTITLE5=Day Dream
TTITLE6=Giant Steps
TTITLE7=Snooze
TTITLE8=Stella By Starlight
TTITLE9=Joy Spring
EXTD=YEAR: 1993
EXTT0=
EXTT1=
EXTT2=
EXTT3=
EXTT4=
EXTT5=
EXTT6=
EXTT7=
EXTT8=
EXTT9=
PLAYORDER=
